<mxfile host="app.diagrams.net" agent="Mozilla/5.0 (Macintosh; Intel Mac OS X 10_15_7) AppleWebKit/537.36 (KHTML, like Gecko) Chrome/129.0.0.0 Safari/537.36" version="24.7.16">
  <diagram name="Seite-1" id="8RXg7SYk0dgR9n0JLiVH">
    <mxGraphModel dx="794" dy="1121" grid="1" gridSize="10" guides="1" tooltips="1" connect="1" arrows="1" fold="1" page="1" pageScale="1" pageWidth="827" pageHeight="1169" math="0" shadow="0">
      <root>
        <mxCell id="0" />
        <mxCell id="1" parent="0" />
        <mxCell id="-YWN5x1KfCnDCkgAIjRP-10" value="" style="group" vertex="1" connectable="0" parent="1">
          <mxGeometry x="330" y="150" width="150" height="120" as="geometry" />
        </mxCell>
        <mxCell id="-YWN5x1KfCnDCkgAIjRP-1" value="Satellite Data" style="rounded=0;whiteSpace=wrap;html=1;" vertex="1" parent="-YWN5x1KfCnDCkgAIjRP-10">
          <mxGeometry width="150" height="30" as="geometry" />
        </mxCell>
        <mxCell id="-YWN5x1KfCnDCkgAIjRP-3" value="name: string&lt;div&gt;norad_id: integer&lt;/div&gt;&lt;div&gt;launch_date: string&lt;/div&gt;&lt;div&gt;decay_date: string&lt;/div&gt;&lt;div&gt;classification: string&lt;/div&gt;" style="rounded=0;whiteSpace=wrap;html=1;align=left;verticalAlign=middle;" vertex="1" parent="-YWN5x1KfCnDCkgAIjRP-10">
          <mxGeometry y="30" width="150" height="90" as="geometry" />
        </mxCell>
        <mxCell id="-YWN5x1KfCnDCkgAIjRP-11" value="" style="group;align=left;" vertex="1" connectable="0" parent="1">
          <mxGeometry x="110" y="180" width="150" height="220" as="geometry" />
        </mxCell>
        <mxCell id="-YWN5x1KfCnDCkgAIjRP-4" value="Ping Data" style="rounded=0;whiteSpace=wrap;html=1;" vertex="1" parent="-YWN5x1KfCnDCkgAIjRP-11">
          <mxGeometry width="150" height="30" as="geometry" />
        </mxCell>
        <mxCell id="-YWN5x1KfCnDCkgAIjRP-6" value="msm_id: integer&lt;div&gt;destination: string&lt;/div&gt;&lt;div&gt;source: string&lt;/div&gt;&lt;div&gt;result: string&lt;/div&gt;&lt;div&gt;country: string&lt;/div&gt;&lt;div&gt;prb_id: integer&lt;/div&gt;&lt;div&gt;timestamp: integer&lt;/div&gt;&lt;div&gt;msm_type: string&lt;/div&gt;&lt;div&gt;step: integer&lt;/div&gt;&lt;div&gt;sent_packets: integer&lt;/div&gt;&lt;div&gt;received_packets: integer&lt;/div&gt;&lt;div&gt;source_platform: string&lt;/div&gt;" style="rounded=0;whiteSpace=wrap;html=1;align=left;" vertex="1" parent="-YWN5x1KfCnDCkgAIjRP-11">
          <mxGeometry y="30" width="150" height="190" as="geometry" />
        </mxCell>
        <mxCell id="-YWN5x1KfCnDCkgAIjRP-15" value="" style="group" vertex="1" connectable="0" parent="1">
          <mxGeometry x="110" y="440" width="150" height="210" as="geometry" />
        </mxCell>
        <mxCell id="-YWN5x1KfCnDCkgAIjRP-12" value="Disconnect Event Data" style="rounded=0;whiteSpace=wrap;html=1;" vertex="1" parent="-YWN5x1KfCnDCkgAIjRP-15">
          <mxGeometry width="150" height="30" as="geometry" />
        </mxCell>
        <mxCell id="-YWN5x1KfCnDCkgAIjRP-14" value="timestamp: integer&lt;div&gt;stored_timestamp: integer&lt;/div&gt;&lt;div&gt;prb_id: integer&lt;/div&gt;&lt;div&gt;msm_id: integer&lt;/div&gt;&lt;div&gt;type: string&lt;/div&gt;&lt;div&gt;event: string&lt;/div&gt;&lt;div&gt;controller: string&lt;/div&gt;&lt;div&gt;asn: integer&lt;/div&gt;&lt;div&gt;prefix: string&lt;/div&gt;&lt;div&gt;prb_country: string&lt;/div&gt;&lt;div&gt;source_platform: string&lt;/div&gt;" style="rounded=0;whiteSpace=wrap;html=1;align=left;" vertex="1" parent="-YWN5x1KfCnDCkgAIjRP-15">
          <mxGeometry y="30" width="150" height="180" as="geometry" />
        </mxCell>
        <mxCell id="-YWN5x1KfCnDCkgAIjRP-19" value="" style="group" vertex="1" connectable="0" parent="1">
          <mxGeometry x="110" y="680" width="150" height="220" as="geometry" />
        </mxCell>
        <mxCell id="-YWN5x1KfCnDCkgAIjRP-16" value="TLS Data" style="rounded=0;whiteSpace=wrap;html=1;" vertex="1" parent="-YWN5x1KfCnDCkgAIjRP-19">
          <mxGeometry width="150" height="30" as="geometry" />
        </mxCell>
        <mxCell id="-YWN5x1KfCnDCkgAIjRP-18" value="af: integer&lt;div&gt;dst_name: string&lt;/div&gt;&lt;div&gt;dst_port: string&lt;/div&gt;&lt;div&gt;src_name: string&lt;/div&gt;&lt;div&gt;method: string&lt;/div&gt;&lt;div&gt;msm_id: integer&lt;/div&gt;&lt;div&gt;msm_name: string&lt;/div&gt;&lt;div&gt;prb_id: integer&lt;/div&gt;&lt;div&gt;rt: float&lt;/div&gt;&lt;div&gt;ttc: float&lt;/div&gt;&lt;div&gt;timestamp: integer&lt;/div&gt;&lt;div&gt;source_platform: string&lt;/div&gt;" style="rounded=0;whiteSpace=wrap;html=1;align=left;" vertex="1" parent="-YWN5x1KfCnDCkgAIjRP-19">
          <mxGeometry y="30" width="150" height="190" as="geometry" />
        </mxCell>
        <mxCell id="-YWN5x1KfCnDCkgAIjRP-23" value="" style="group" vertex="1" connectable="0" parent="1">
          <mxGeometry x="330" y="490" width="150" height="140" as="geometry" />
        </mxCell>
        <mxCell id="-YWN5x1KfCnDCkgAIjRP-20" value="RIPE Atlas Probe Data" style="rounded=0;whiteSpace=wrap;html=1;" vertex="1" parent="-YWN5x1KfCnDCkgAIjRP-23">
          <mxGeometry width="150" height="32.30769230769231" as="geometry" />
        </mxCell>
        <mxCell id="-YWN5x1KfCnDCkgAIjRP-22" value="id: integer&lt;div&gt;ipv4: string&lt;/div&gt;&lt;div&gt;asn: integer&lt;/div&gt;&lt;div&gt;longitude: float&lt;/div&gt;&lt;div&gt;latitude: float&lt;/div&gt;&lt;div&gt;country: string&lt;/div&gt;" style="rounded=0;whiteSpace=wrap;html=1;align=left;" vertex="1" parent="-YWN5x1KfCnDCkgAIjRP-23">
          <mxGeometry y="32.30769230769231" width="150" height="107.6923076923077" as="geometry" />
        </mxCell>
        <mxCell id="-YWN5x1KfCnDCkgAIjRP-27" value="" style="group" vertex="1" connectable="0" parent="1">
          <mxGeometry x="330" y="300" width="150" height="150" as="geometry" />
        </mxCell>
        <mxCell id="-YWN5x1KfCnDCkgAIjRP-24" value="HTTP Data" style="rounded=0;whiteSpace=wrap;html=1;" vertex="1" parent="-YWN5x1KfCnDCkgAIjRP-27">
          <mxGeometry width="150" height="30" as="geometry" />
        </mxCell>
        <mxCell id="-YWN5x1KfCnDCkgAIjRP-26" value="data_id: string&lt;div&gt;src: string&lt;/div&gt;&lt;div&gt;prb_id: integer&lt;/div&gt;&lt;div&gt;msm_id: integer&lt;/div&gt;&lt;div&gt;timestamp: integer&lt;/div&gt;&lt;div&gt;uri: string&lt;/div&gt;&lt;div&gt;source_platform: string&lt;/div&gt;" style="rounded=0;whiteSpace=wrap;html=1;align=left;" vertex="1" parent="-YWN5x1KfCnDCkgAIjRP-27">
          <mxGeometry y="30" width="150" height="120" as="geometry" />
        </mxCell>
        <mxCell id="-YWN5x1KfCnDCkgAIjRP-31" value="" style="group" vertex="1" connectable="0" parent="1">
          <mxGeometry x="520" y="470" width="150" height="180" as="geometry" />
        </mxCell>
        <mxCell id="-YWN5x1KfCnDCkgAIjRP-28" value="DNS Data" style="rounded=0;whiteSpace=wrap;html=1;" vertex="1" parent="-YWN5x1KfCnDCkgAIjRP-31">
          <mxGeometry width="150" height="30" as="geometry" />
        </mxCell>
        <mxCell id="-YWN5x1KfCnDCkgAIjRP-30" value="data_id: string&lt;div&gt;af: integer&lt;/div&gt;&lt;div&gt;dst_addr: string&lt;/div&gt;&lt;div&gt;origin: string&lt;/div&gt;&lt;div&gt;msm_id: integer&lt;/div&gt;&lt;div&gt;prb_id: integer&lt;/div&gt;&lt;div&gt;proto: string&lt;/div&gt;&lt;div&gt;timestamp: integer&lt;/div&gt;&lt;div&gt;source_platform: string&lt;/div&gt;" style="rounded=0;whiteSpace=wrap;html=1;align=left;" vertex="1" parent="-YWN5x1KfCnDCkgAIjRP-31">
          <mxGeometry y="30" width="150" height="150" as="geometry" />
        </mxCell>
        <mxCell id="-YWN5x1KfCnDCkgAIjRP-35" value="" style="group" vertex="1" connectable="0" parent="1">
          <mxGeometry x="520" y="270" width="150" height="180" as="geometry" />
        </mxCell>
        <mxCell id="-YWN5x1KfCnDCkgAIjRP-32" value="HTTP Result Data" style="rounded=0;whiteSpace=wrap;html=1;" vertex="1" parent="-YWN5x1KfCnDCkgAIjRP-35">
          <mxGeometry width="150" height="30" as="geometry" />
        </mxCell>
        <mxCell id="-YWN5x1KfCnDCkgAIjRP-34" value="data_id: string&lt;div&gt;af: integer&lt;/div&gt;&lt;div&gt;msm_id: integer&lt;/div&gt;&lt;div&gt;bsize: integer&lt;/div&gt;&lt;div&gt;dst_addr: string&lt;/div&gt;&lt;div&gt;hsize: integer&lt;/div&gt;&lt;div&gt;method: string&lt;/div&gt;&lt;div&gt;http_status_code: integer&lt;/div&gt;&lt;div&gt;rt: float&lt;/div&gt;" style="rounded=0;whiteSpace=wrap;html=1;align=left;" vertex="1" parent="-YWN5x1KfCnDCkgAIjRP-35">
          <mxGeometry y="30" width="150" height="150" as="geometry" />
        </mxCell>
        <mxCell id="-YWN5x1KfCnDCkgAIjRP-39" value="" style="group" vertex="1" connectable="0" parent="1">
          <mxGeometry x="305" y="680" width="200" height="230" as="geometry" />
        </mxCell>
        <mxCell id="-YWN5x1KfCnDCkgAIjRP-36" value="Traceroute Data" style="rounded=0;whiteSpace=wrap;html=1;" vertex="1" parent="-YWN5x1KfCnDCkgAIjRP-39">
          <mxGeometry width="200" height="30" as="geometry" />
        </mxCell>
        <mxCell id="-YWN5x1KfCnDCkgAIjRP-38" value="msm_id: integer&lt;div&gt;prb_id: integer&lt;/div&gt;&lt;div&gt;destination: string&lt;/div&gt;&lt;div&gt;source: string&lt;/div&gt;&lt;div&gt;protocol: string&lt;/div&gt;&lt;div&gt;af: integer&lt;/div&gt;&lt;div&gt;size: integer&lt;/div&gt;&lt;div&gt;paris_id: integer&lt;/div&gt;&lt;div&gt;result: string&lt;/div&gt;&lt;div&gt;destination_ip_responded: boolean&lt;/div&gt;&lt;div&gt;timestamp: integer&lt;/div&gt;&lt;div&gt;source_platform: string&lt;/div&gt;" style="rounded=0;whiteSpace=wrap;html=1;align=left;glass=0;" vertex="1" parent="-YWN5x1KfCnDCkgAIjRP-39">
          <mxGeometry y="30" width="200" height="200" as="geometry" />
        </mxCell>
        <mxCell id="-YWN5x1KfCnDCkgAIjRP-43" value="" style="group" vertex="1" connectable="0" parent="1">
          <mxGeometry x="710" y="465" width="190" height="200" as="geometry" />
        </mxCell>
        <mxCell id="-YWN5x1KfCnDCkgAIjRP-40" value="DNS Result Data" style="rounded=0;whiteSpace=wrap;html=1;" vertex="1" parent="-YWN5x1KfCnDCkgAIjRP-43">
          <mxGeometry width="190" height="30" as="geometry" />
        </mxCell>
        <mxCell id="-YWN5x1KfCnDCkgAIjRP-42" value="data_id: string&lt;div&gt;answer_count: integer&lt;/div&gt;&lt;div&gt;record_count: integer&lt;/div&gt;&lt;div&gt;query_id: integer&lt;/div&gt;&lt;div&gt;nameserver_count: integer&lt;/div&gt;&lt;div&gt;number_of_queries: integer&lt;/div&gt;&lt;div&gt;answer_payload_buffer: string&lt;/div&gt;&lt;div&gt;rt: float&lt;/div&gt;&lt;div&gt;size: integer&lt;/div&gt;&lt;div&gt;ttl: integer&lt;/div&gt;" style="rounded=0;whiteSpace=wrap;html=1;align=left;" vertex="1" parent="-YWN5x1KfCnDCkgAIjRP-43">
          <mxGeometry y="30" width="190" height="170" as="geometry" />
        </mxCell>
        <mxCell id="-YWN5x1KfCnDCkgAIjRP-47" value="" style="group" vertex="1" connectable="0" parent="1">
          <mxGeometry x="736" y="240" width="150" height="170" as="geometry" />
        </mxCell>
        <mxCell id="-YWN5x1KfCnDCkgAIjRP-44" value="DNS Result Answer Data" style="rounded=0;whiteSpace=wrap;html=1;" vertex="1" parent="-YWN5x1KfCnDCkgAIjRP-47">
          <mxGeometry width="150" height="30" as="geometry" />
        </mxCell>
        <mxCell id="-YWN5x1KfCnDCkgAIjRP-46" value="data_id: string&lt;div&gt;mname: string&lt;/div&gt;&lt;div&gt;name: string&lt;/div&gt;&lt;div&gt;rdata: string&lt;/div&gt;&lt;div&gt;rname: string&lt;/div&gt;&lt;div&gt;serial: integer&lt;/div&gt;&lt;div&gt;ttl: integer&lt;/div&gt;&lt;div&gt;type: string&lt;/div&gt;" style="rounded=0;whiteSpace=wrap;html=1;align=left;" vertex="1" parent="-YWN5x1KfCnDCkgAIjRP-47">
          <mxGeometry y="30" width="150" height="140" as="geometry" />
        </mxCell>
        <mxCell id="-YWN5x1KfCnDCkgAIjRP-49" style="edgeStyle=orthogonalEdgeStyle;rounded=0;orthogonalLoop=1;jettySize=auto;html=1;exitX=0.5;exitY=1;exitDx=0;exitDy=0;entryX=0.5;entryY=0;entryDx=0;entryDy=0;endArrow=none;endFill=0;startArrow=diamond;startFill=0;" edge="1" parent="1" source="-YWN5x1KfCnDCkgAIjRP-22" target="-YWN5x1KfCnDCkgAIjRP-36">
          <mxGeometry relative="1" as="geometry" />
        </mxCell>
        <mxCell id="-YWN5x1KfCnDCkgAIjRP-51" style="edgeStyle=orthogonalEdgeStyle;rounded=0;orthogonalLoop=1;jettySize=auto;html=1;exitX=1;exitY=0.25;exitDx=0;exitDy=0;entryX=-0.007;entryY=0.333;entryDx=0;entryDy=0;entryPerimeter=0;startArrow=diamond;startFill=0;endArrow=none;endFill=0;" edge="1" parent="1" source="-YWN5x1KfCnDCkgAIjRP-22" target="-YWN5x1KfCnDCkgAIjRP-30">
          <mxGeometry relative="1" as="geometry" />
        </mxCell>
        <mxCell id="-YWN5x1KfCnDCkgAIjRP-52" style="edgeStyle=orthogonalEdgeStyle;rounded=0;orthogonalLoop=1;jettySize=auto;html=1;exitX=0;exitY=0.25;exitDx=0;exitDy=0;entryX=1;entryY=0.25;entryDx=0;entryDy=0;endArrow=diamond;endFill=0;" edge="1" parent="1" source="-YWN5x1KfCnDCkgAIjRP-42" target="-YWN5x1KfCnDCkgAIjRP-30">
          <mxGeometry relative="1" as="geometry" />
        </mxCell>
        <mxCell id="-YWN5x1KfCnDCkgAIjRP-53" style="edgeStyle=orthogonalEdgeStyle;rounded=0;orthogonalLoop=1;jettySize=auto;html=1;exitX=0.46;exitY=0.986;exitDx=0;exitDy=0;entryX=0.5;entryY=0;entryDx=0;entryDy=0;exitPerimeter=0;endArrow=diamond;endFill=0;" edge="1" parent="1" source="-YWN5x1KfCnDCkgAIjRP-46" target="-YWN5x1KfCnDCkgAIjRP-40">
          <mxGeometry relative="1" as="geometry" />
        </mxCell>
        <mxCell id="-YWN5x1KfCnDCkgAIjRP-57" style="edgeStyle=orthogonalEdgeStyle;rounded=0;orthogonalLoop=1;jettySize=auto;html=1;exitX=0;exitY=0.6;exitDx=0;exitDy=0;entryX=1;entryY=0.5;entryDx=0;entryDy=0;exitPerimeter=0;endArrow=diamond;endFill=0;" edge="1" parent="1" source="-YWN5x1KfCnDCkgAIjRP-34" target="-YWN5x1KfCnDCkgAIjRP-26">
          <mxGeometry relative="1" as="geometry" />
        </mxCell>
        <mxCell id="-YWN5x1KfCnDCkgAIjRP-58" style="edgeStyle=orthogonalEdgeStyle;rounded=0;orthogonalLoop=1;jettySize=auto;html=1;exitX=0.5;exitY=1;exitDx=0;exitDy=0;entryX=0.5;entryY=0;entryDx=0;entryDy=0;endArrow=diamond;endFill=0;" edge="1" parent="1" source="-YWN5x1KfCnDCkgAIjRP-26" target="-YWN5x1KfCnDCkgAIjRP-20">
          <mxGeometry relative="1" as="geometry" />
        </mxCell>
        <mxCell id="-YWN5x1KfCnDCkgAIjRP-55" style="edgeStyle=orthogonalEdgeStyle;rounded=0;orthogonalLoop=1;jettySize=auto;html=1;exitX=1;exitY=0.589;exitDx=0;exitDy=0;entryX=0;entryY=0.5;entryDx=0;entryDy=0;exitPerimeter=0;endArrow=diamond;endFill=0;" edge="1" parent="1" source="-YWN5x1KfCnDCkgAIjRP-14" target="-YWN5x1KfCnDCkgAIjRP-22">
          <mxGeometry relative="1" as="geometry" />
        </mxCell>
        <mxCell id="-YWN5x1KfCnDCkgAIjRP-54" style="edgeStyle=orthogonalEdgeStyle;rounded=0;orthogonalLoop=1;jettySize=auto;html=1;exitX=1;exitY=0.5;exitDx=0;exitDy=0;entryX=0;entryY=0.25;entryDx=0;entryDy=0;endArrow=diamond;endFill=0;" edge="1" parent="1" source="-YWN5x1KfCnDCkgAIjRP-6" target="-YWN5x1KfCnDCkgAIjRP-22">
          <mxGeometry relative="1" as="geometry" />
        </mxCell>
        <mxCell id="-YWN5x1KfCnDCkgAIjRP-56" style="edgeStyle=orthogonalEdgeStyle;rounded=0;orthogonalLoop=1;jettySize=auto;html=1;exitX=1;exitY=0.5;exitDx=0;exitDy=0;entryX=0;entryY=0.75;entryDx=0;entryDy=0;endArrow=diamond;endFill=0;" edge="1" parent="1" source="-YWN5x1KfCnDCkgAIjRP-18" target="-YWN5x1KfCnDCkgAIjRP-22">
          <mxGeometry relative="1" as="geometry" />
        </mxCell>
      </root>
    </mxGraphModel>
  </diagram>
</mxfile>
